# xmcd
#
# Track frame offsets: 
#        150
#        18411
#        37816
#        53540
#        67898
#        82412
#        97100
#        111572
#        130883
#        146145
#        161571
#        174668
#        184296
#        201221
#
# Disc length: 2847 seconds
#
# Revision: 0
# Processed by: cddbd v1.5.2PL0 Copyright (c) Steve Scherf et al.
# Submitted via: ExactAudioCopyFreeDBPlugin 1.0
#
DISCID=cb0b1d0e
DTITLE=American Scarecrows - Keep Your Devils Around
DYEAR=1900
DGENRE=Country
TTITLE0=In The Name Of The Best Within Us
TTITLE1=Wild Hearts
TTITLE2=No Guts, No Laurie
TTITLE3=My Way Home
TTITLE4=Feeling Alright (Woo Hoo)
TTITLE5=Cannon Canyon
TTITLE6=Passenger Seat
TTITLE7=Depending On The Weather
TTITLE8=On The Run
TTITLE9=Jesus On The TV
TTITLE10=Naked In The Gallery
TTITLE11=Black and Tan
TTITLE12=Stay The Same
TTITLE13=Visit With The Stars
EXTD=
EXTT0=
EXTT1=
EXTT2=
EXTT3=
EXTT4=
EXTT5=
EXTT6=
EXTT7=
EXTT8=
EXTT9=
EXTT10=
EXTT11=
EXTT12=
EXTT13=
PLAYORDER=
